<mxfile host="app.diagrams.net" modified="2024-05-10T08:27:38.059Z" agent="Mozilla/5.0 (X11; Linux x86_64; rv:109.0) Gecko/20100101 Firefox/115.0" version="24.3.1" etag="8AfhSMl7lxNJHjT8j-2f" type="github">
  <diagram name="Page-1" id="M0CoNPIFFtJzEhN2oI2M">
    <mxGraphModel>
      <root>
        <mxCell id="0" />
        <mxCell id="1" parent="0" />
      </root>
    </mxGraphModel>
  </diagram>
</mxfile>
